<svg width="90" height="20" viewBox="0 0 90 20" fill="none" xmlns="http://www.w3.org/2000/svg">
<path fill-rule="evenodd" clip-rule="evenodd" d="M7.5199 0C10.0435 0 12.8073 0.585219 14.7996 1.59712V7.56185C12.86 6.44328 10.4155 5.69756 8.42326 5.72399C7.599 5.72399 7.307 5.9109 7.307 6.25734C7.307 7.82803 15.8367 6.86898 15.8367 13.232C15.8367 18.2377 12.1959 19.5432 7.73182 19.5432C4.83617 19.5432 2.28527 18.9306 0.185556 17.7582V11.449C2.57727 12.9668 5.07447 13.7115 6.93491 13.7115C8.34318 13.7115 8.55608 13.4454 8.55608 13.0725C8.55608 11.7416 0 12.407 0 6.0166C0 1.96998 3.3488 0 7.5199 0Z" fill="#FFA017"/>
<path fill-rule="evenodd" clip-rule="evenodd" d="M20.7229 19.5433C18.8711 19.5433 17.2394 18.4711 17.2394 16.2213C17.2394 13.9716 18.8711 12.8993 20.7229 12.8993C22.6007 12.8993 24.2334 13.9716 24.2334 16.2213C24.2334 18.4711 22.6007 19.5433 20.7229 19.5433ZM18.1368 11.4264L17.1844 0.337036H24.2604L23.308 11.4264H18.1368Z" fill="#E05600"/>
<path fill-rule="evenodd" clip-rule="evenodd" d="M47.8471 0.337036V18.8694H41.0096V11.4833L38.6859 15.1101H35.1066L32.7829 11.4298V18.8694H25.9453V0.337036H32.0358L36.8972 7.98877L41.7576 0.337036H47.8471Z" fill="#FFA017"/>
<path fill-rule="evenodd" clip-rule="evenodd" d="M55.255 15.1885C55.255 15.807 55.7633 16.0223 56.2696 16.0223C56.617 16.0223 56.9633 15.9146 57.2577 15.7269V14.3024C57.0438 14.248 56.7769 14.2214 56.51 14.2214C55.9497 14.2214 55.255 14.4357 55.255 15.1885ZM63.824 15.3239C64.0114 15.3239 64.1978 15.2962 64.3578 15.2696V18.9525C63.611 19.3012 62.0892 19.5166 61.1021 19.5166C59.7136 19.5166 58.4587 19.1402 57.7914 18.1997C56.6974 19.0859 55.3619 19.5433 53.6536 19.5433C51.2771 19.5433 49.1949 18.3341 49.1949 15.7003C49.1949 12.4204 52.1052 11.5333 54.9076 11.5333C55.4159 11.5333 56.5894 11.6143 57.2576 11.7753V11.5609C57.2576 10.6461 56.5099 10.2974 54.8016 10.2974C53.2533 10.2974 51.7314 10.5928 50.1036 11.1569V6.58776C51.4645 6.18469 53.7076 5.72827 55.5493 5.72827C60.2209 5.72827 63.1842 6.88413 63.1842 12.1784V14.7055C63.1842 15.1352 63.4236 15.3239 63.824 15.3239Z" fill="#FFA017"/>
<path fill-rule="evenodd" clip-rule="evenodd" d="M72.6666 1.34778V6.1785H75.0077V11.2775H72.6666V13.2899C72.6666 14.0959 73.3503 14.23 74.0349 14.23C74.4285 14.23 74.8501 14.1768 75.1402 14.0959V19.0608C73.8241 19.3824 72.6134 19.5431 71.4559 19.5431C69.0094 19.5431 66.2738 18.6583 66.2738 14.23V11.2775H64.6947V6.1785H66.2738V2.85017L72.6666 1.34778Z" fill="#FFA017"/>
<path fill-rule="evenodd" clip-rule="evenodd" d="M83.5927 9.78658C82.5716 9.78658 82.1154 10.566 82.1154 11.3455H84.829C84.9357 10.5127 84.5328 9.78658 83.5927 9.78658ZM83.2165 5.72827C89.2352 5.72827 90.5248 10.2974 89.7724 13.8717H82.2221C82.6259 14.7321 84.0499 15.1885 85.5272 15.1885C86.8702 15.1885 88.1332 15.0552 89.2609 14.7598V18.8982C87.9722 19.3289 86.6282 19.5433 84.6414 19.5433C80.5838 19.5433 76.151 17.8767 76.151 12.5014C76.151 7.44823 80.2876 5.72827 83.2165 5.72827Z" fill="#FFA017"/>
</svg>
