<svg width="714" height="155" viewBox="0 0 714 155" fill="none" xmlns="http://www.w3.org/2000/svg">
<path fill-rule="evenodd" clip-rule="evenodd" d="M59.5969 0C79.5967 0 101.5 4.64144 117.29 12.6669V59.9739C101.918 51.1024 82.5456 45.1881 66.7563 45.3976C60.2238 45.3976 57.9096 46.8801 57.9096 49.6277C57.9096 62.0851 125.509 54.4787 125.509 104.945C125.509 144.645 96.6553 154.999 61.2764 154.999C38.3278 154.999 18.1113 150.141 1.47057 140.842V90.803C20.4255 102.841 40.2163 108.748 54.9607 108.748C66.1216 108.748 67.8089 106.637 67.8089 103.68C67.8089 93.1238 0 98.4017 0 47.7184C0 15.6241 26.54 0 59.5969 0Z" fill="#F36D03"/>
<path fill-rule="evenodd" clip-rule="evenodd" d="M164.235 154.999C149.559 154.999 136.628 146.495 136.628 128.652C136.628 110.809 149.559 102.305 164.235 102.305C179.117 102.305 192.056 110.809 192.056 128.652C192.056 146.495 179.117 154.999 164.235 154.999ZM143.741 90.6223L136.193 2.67139H192.271L184.723 90.6223H143.741Z" fill="#F36D03"/>
<path fill-rule="evenodd" clip-rule="evenodd" d="M379.2 2.67139V149.653H325.01V91.0737L306.595 119.839H278.228L259.812 90.6492V149.653H205.623V2.67139H253.891L292.419 63.3582L330.939 2.67139H379.2Z" fill="#F36D03"/>
<path fill-rule="evenodd" clip-rule="evenodd" d="M437.911 120.462C437.911 125.367 441.939 127.075 445.952 127.075C448.705 127.075 451.45 126.221 453.783 124.732V113.434C452.087 113.003 449.972 112.791 447.857 112.791C443.417 112.791 437.911 114.492 437.911 120.462ZM505.82 121.535C507.306 121.535 508.783 121.316 510.051 121.104V150.314C504.133 153.08 492.072 154.788 484.249 154.788C473.245 154.788 463.299 151.803 458.011 144.344C449.34 151.372 438.757 155 425.218 155C406.384 155 389.882 145.409 389.882 124.52C389.882 98.5073 412.947 91.4712 435.156 91.4712C439.184 91.4712 448.485 92.1137 453.781 93.3909V91.6906C453.781 84.4352 447.855 81.6693 434.316 81.6693C422.045 81.6693 409.984 84.012 397.083 88.486V52.2478C407.869 49.051 425.646 45.4312 440.242 45.4312C477.265 45.4312 500.75 54.5984 500.75 96.5877V116.63C500.75 120.039 502.648 121.535 505.82 121.535Z" fill="#F36D03"/>
<path fill-rule="evenodd" clip-rule="evenodd" d="M575.901 10.6904V49.0035H594.455V89.4446H575.901V105.405C575.901 111.797 581.32 112.861 586.745 112.861C589.865 112.861 593.206 112.439 595.505 111.797V151.174C585.075 153.725 575.48 155 566.306 155C546.917 155 525.237 147.982 525.237 112.861V89.4446H512.722V49.0035H525.237V22.6061L575.901 10.6904Z" fill="#F36D03"/>
<path fill-rule="evenodd" clip-rule="evenodd" d="M662.49 77.6194C654.398 77.6194 650.782 83.8015 650.782 89.9835H672.288C673.134 83.3784 669.941 77.6194 662.49 77.6194ZM659.51 45.4312C707.209 45.4312 717.43 81.6693 711.467 110.017H651.629C654.83 116.842 666.115 120.462 677.823 120.462C688.466 120.462 698.475 119.404 707.413 117.061V149.883C697.2 153.299 686.549 155 670.803 155C638.645 155 603.514 141.782 603.514 99.1498C603.514 59.0724 636.297 45.4312 659.51 45.4312Z" fill="#F36D03"/>
</svg>
