<svg width="121" height="168" viewBox="0 0 121 168" fill="none" xmlns="http://www.w3.org/2000/svg">
<g clip-path="url(#clip0)">
<path d="M94.0003 0C82.2704 0 72.7621 14.1967 72.7621 31.7088C72.7621 43.9317 77.3945 54.5395 84.1803 59.833L62.258 160.062L117.533 167.987L101.702 61.2692C109.624 56.6649 115.238 45.166 115.238 31.7095C115.238 14.1967 105.73 0 94.0003 0Z" fill="#F36D03"/>
<mask id="path-3-inside-1" fill="white">
<path d="M104.125 2.23173C104.227 2.21768 104.298 2.1245 104.284 2.02392C104.27 1.92261 104.176 1.85161 104.075 1.86566L104.125 2.23173ZM93.348 60.8068L93.5306 60.8416L93.5513 60.7307L93.4623 60.6612L93.348 60.8068ZM75.6663 153.056L75.4846 153.021L75.4519 153.19L75.6189 153.235L75.6663 153.056ZM79.6339 33.5338C79.6339 26.5467 81.3399 19.3178 85.2518 13.5391C89.16 7.76562 95.2765 3.43125 104.125 2.23173L104.075 1.86566C95.1192 3.07997 88.91 7.47351 84.9439 13.3328C80.9815 19.1862 79.2629 26.4927 79.2629 33.5345H79.6339V33.5338ZM93.4623 60.6612C86.8531 55.5066 79.6339 45.4217 79.6339 33.5338H79.2629C79.2629 45.5659 86.5622 55.7492 93.2338 60.9525L93.4623 60.6612ZM93.1655 60.7721L75.4846 153.021L75.8489 153.09L93.5306 60.8416L93.1655 60.7721ZM75.6189 153.235L120.47 165.075L120.565 164.718L75.7146 152.877L75.6189 153.235Z"/>
</mask>
<path d="M104.125 2.23173C104.227 2.21768 104.298 2.1245 104.284 2.02392C104.27 1.92261 104.176 1.85161 104.075 1.86566L104.125 2.23173ZM93.348 60.8068L93.5306 60.8416L93.5513 60.7307L93.4623 60.6612L93.348 60.8068ZM75.6663 153.056L75.4846 153.021L75.4519 153.19L75.6189 153.235L75.6663 153.056ZM79.6339 33.5338C79.6339 26.5467 81.3399 19.3178 85.2518 13.5391C89.16 7.76562 95.2765 3.43125 104.125 2.23173L104.075 1.86566C95.1192 3.07997 88.91 7.47351 84.9439 13.3328C80.9815 19.1862 79.2629 26.4927 79.2629 33.5345H79.6339V33.5338ZM93.4623 60.6612C86.8531 55.5066 79.6339 45.4217 79.6339 33.5338H79.2629C79.2629 45.5659 86.5622 55.7492 93.2338 60.9525L93.4623 60.6612ZM93.1655 60.7721L75.4846 153.021L75.8489 153.09L93.5306 60.8416L93.1655 60.7721ZM75.6189 153.235L120.47 165.075L120.565 164.718L75.7146 152.877L75.6189 153.235Z" fill="black"/>
<path d="M104.125 2.23173L100.062 2.78352L100.616 6.85581L104.687 6.29312L104.125 2.23173ZM104.284 2.02392L100.223 2.58901L100.224 2.59309L104.284 2.02392ZM104.075 1.86566L103.51 -2.19516L99.4628 -1.63164L100.013 2.41746L104.075 1.86566ZM93.348 60.8068L90.1221 58.2764L85.966 63.5748L92.581 64.8345L93.348 60.8068ZM93.5306 60.8416L92.7636 64.8692L96.8033 65.6385L97.5605 61.5965L93.5306 60.8416ZM93.5513 60.7307L97.5813 61.4855L98.0405 59.0339L96.0744 57.499L93.5513 60.7307ZM93.4623 60.6612L95.9854 57.4294L92.761 54.9121L90.2363 58.1307L93.4623 60.6612ZM75.6663 153.056L79.6292 154.107L80.7575 149.855L76.4363 149.029L75.6663 153.056ZM75.4846 153.021L76.2545 148.994L72.2336 148.225L71.4587 152.245L75.4846 153.021ZM75.4519 153.19L71.426 152.414L70.702 156.17L74.3986 157.153L75.4519 153.19ZM75.6189 153.235L74.5656 157.197L78.5298 158.251L79.5818 154.286L75.6189 153.235ZM85.2518 13.5391L88.647 15.8375L88.6471 15.8375L85.2518 13.5391ZM104.125 2.23173L104.676 6.29457L108.74 5.74367L108.188 1.67994L104.125 2.23173ZM104.075 1.86566L108.138 1.31387L107.586 -2.74788L103.525 -2.19716L104.075 1.86566ZM84.9439 13.3328L88.3391 15.6312L88.3392 15.631L84.9439 13.3328ZM79.2629 33.5345H75.1629V37.6345H79.2629V33.5345ZM79.6339 33.5345V37.6345H83.7339V33.5345H79.6339ZM93.4623 60.6612L96.6883 63.1916L99.2258 59.9566L95.9837 57.4281L93.4623 60.6612ZM79.6339 33.5338H83.7339V29.4338H79.6339V33.5338ZM79.2629 33.5338V29.4338H75.1629V33.5338H79.2629ZM93.2338 60.9525L90.7123 64.1855L93.9363 66.7L96.4597 63.4829L93.2338 60.9525ZM93.1655 60.7721L93.9324 56.7444L89.9096 55.9784L89.1388 60.0003L93.1655 60.7721ZM75.4846 153.021L71.4578 152.249L70.6855 156.279L74.716 157.048L75.4846 153.021ZM75.8489 153.09L75.0803 157.118L79.1044 157.886L79.8756 153.862L75.8489 153.09ZM93.5306 60.8416L97.5573 61.6134L98.33 57.5818L94.2975 56.814L93.5306 60.8416ZM75.6189 153.235L71.6586 152.173L70.5934 156.148L74.5723 157.199L75.6189 153.235ZM120.47 165.075L119.423 169.039L123.38 170.084L124.432 166.129L120.47 165.075ZM120.565 164.718L124.527 165.772L125.583 161.802L121.611 160.754L120.565 164.718ZM75.7146 152.877L76.7611 148.913L72.8116 147.871L71.7543 151.816L75.7146 152.877ZM104.687 6.29312C106.992 5.97442 108.679 3.84262 108.344 1.45476L100.224 2.59309C99.9171 0.406376 101.461 -1.53906 103.564 -1.82966L104.687 6.29312ZM108.345 1.45884C108.021 -0.868492 105.871 -2.52384 103.51 -2.19516L104.641 5.92649C102.482 6.22707 100.519 4.71371 100.223 2.58901L108.345 1.45884ZM100.013 2.41746L100.062 2.78352L108.188 1.67994L108.138 1.31387L100.013 2.41746ZM92.581 64.8345L92.7636 64.8692L94.2975 56.814L94.115 56.7792L92.581 64.8345ZM97.5605 61.5965L97.5813 61.4855L89.5214 59.9758L89.5007 60.0867L97.5605 61.5965ZM96.0744 57.499L95.9854 57.4294L90.9392 63.8929L91.0282 63.9624L96.0744 57.499ZM90.2363 58.1307L90.1221 58.2764L96.574 63.3373L96.6883 63.1916L90.2363 58.1307ZM76.4363 149.029L76.2545 148.994L74.7146 157.048L74.8964 157.083L76.4363 149.029ZM71.4587 152.245L71.426 152.414L79.4778 153.966L79.5104 153.797L71.4587 152.245ZM74.3986 157.153L74.5656 157.197L76.6721 149.272L76.5052 149.228L74.3986 157.153ZM79.5818 154.286L79.6292 154.107L71.7035 152.004L71.656 152.183L79.5818 154.286ZM83.7339 33.5338C83.7339 27.1562 85.2994 20.7825 88.647 15.8375L81.8566 11.2407C77.3803 17.8531 75.5339 25.9372 75.5339 33.5338H83.7339ZM88.6471 15.8375C91.9149 11.0099 97.0071 7.33415 104.676 6.29457L103.574 -1.83111C93.546 -0.471655 86.4052 4.52132 81.8566 11.2408L88.6471 15.8375ZM108.188 1.67994L108.138 1.31387L100.013 2.41746L100.062 2.78352L108.188 1.67994ZM103.525 -2.19716C93.3888 -0.822927 86.1552 4.22904 81.5486 11.0345L88.3392 15.631C91.6648 10.718 96.8497 6.98287 104.626 5.92849L103.525 -2.19716ZM81.5487 11.0344C77.0218 17.7216 75.1629 25.8834 75.1629 33.5345H83.3629C83.3629 27.102 84.9411 20.6508 88.3391 15.6312L81.5487 11.0344ZM79.2629 37.6345H79.6339V29.4345H79.2629V37.6345ZM83.7339 33.5345V33.5338H75.5339V33.5345H83.7339ZM95.9837 57.4281C90.0625 52.8102 83.7339 43.8132 83.7339 33.5338H75.5339C75.5339 47.0302 83.6437 58.2031 90.9409 63.8942L95.9837 57.4281ZM79.6339 29.4338H79.2629V37.6338H79.6339V29.4338ZM75.1629 33.5338C75.1629 47.1746 83.353 58.4458 90.7123 64.1855L95.7552 57.7196C89.7714 53.0526 83.3629 43.9571 83.3629 33.5338H75.1629ZM96.4597 63.4829L96.6883 63.1916L90.2363 58.1307L90.0078 58.4221L96.4597 63.4829ZM89.1388 60.0003L71.4578 152.249L79.5113 153.793L97.1922 61.5439L89.1388 60.0003ZM74.716 157.048L75.0803 157.118L76.6175 149.063L76.2531 148.994L74.716 157.048ZM79.8756 153.862L97.5573 61.6134L89.5039 60.0698L71.8222 152.319L79.8756 153.862ZM94.2975 56.814L93.9324 56.7444L92.3986 64.7997L92.7636 64.8692L94.2975 56.814ZM74.5723 157.199L119.423 169.039L121.516 161.111L76.6654 149.27L74.5723 157.199ZM124.432 166.129L124.527 165.772L116.602 163.664L116.507 164.022L124.432 166.129ZM121.611 160.754L76.7611 148.913L74.668 156.842L119.518 168.682L121.611 160.754ZM71.7543 151.816L71.6586 152.173L79.5791 154.296L79.6749 153.939L71.7543 151.816Z" fill="#3E4462" mask="url(#path-3-inside-1)"/>
<path d="M39.6812 39.3481C40.5382 42.2921 38.2164 45.5135 36.4764 46.1081C36.3643 47.5139 36.2256 50.4846 36.5706 51.1214C36.9164 51.7581 41.1801 52.8511 43.2681 53.3185C43.067 53.8606 41.6023 55.5437 37.3564 57.9398C28.5315 62.0575 23.4331 55.6909 23.3441 55.3433C30.9876 49.0936 28.9315 45.0328 28.8491 44.7141C28.6844 44.7562 26.7025 43.8488 25.7816 42.6826C25.0722 41.7848 24.7324 41.0971 24.4638 39.9863C24.1454 38.6699 24.0519 37.8387 24.3606 36.5201C25.0366 33.6271 27.8897 31.8995 29.9629 31.356C32.0361 30.8124 33.742 31.8877 35.6067 33.6522C37.6325 35.5691 38.8249 36.404 39.6812 39.3481Z" fill="#FF6B6B"/>
<path d="M31.7712 45.5941C31.7712 45.5941 32.8879 46.2183 36.4645 46.0815C36.4645 46.0815 36.3398 49.9795 36.3398 50.0971C33.5313 47.264 31.7712 45.5941 31.7712 45.5941Z" fill="#E34545"/>
<path d="M36.5973 40.1963C36.5973 40.1963 37.5226 39.4257 37.3112 38.8814C37.1761 38.5331 35.2535 37.1501 35.2535 37.1501" stroke="black" stroke-width="0.502048" stroke-linecap="round"/>
<path d="M36.5462 28.2853C37.5746 28.9909 29.6773 37.2033 26.2981 39.609L27.2731 40.7471C26.8739 40.7102 25.7935 40.6399 25.6711 41.4297C25.5108 43.0301 27.6441 43.4109 29.0272 43.3555C28.9345 43.8739 28.8692 44.7347 28.8692 44.7347C20.7915 41.5155 23.4413 34.3384 24.863 32.2965C28.749 27.5281 32.6825 27.1479 33.3993 27.1479C34.3268 27.6649 32.5081 30.4226 32.5081 30.4226C32.5081 30.4226 35.517 27.5798 36.5462 28.2853Z" fill="black"/>
<path d="M33.3794 38.9321C33.5243 38.793 33.4523 38.4841 33.2187 38.2423C32.985 38.0005 32.6781 37.9172 32.5331 38.0563C32.3882 38.1955 32.4601 38.5043 32.6938 38.7461C32.9275 38.9879 33.2344 39.0712 33.3794 38.9321Z" fill="black"/>
<path d="M36.8744 36.6876C37.0534 36.596 37.0745 36.2811 36.9215 35.9843C36.7686 35.6875 36.4995 35.5212 36.3205 35.6128C36.1415 35.7044 36.1204 36.0193 36.2734 36.3161C36.4264 36.6129 36.6955 36.7793 36.8744 36.6876Z" fill="black"/>
<path d="M36.0156 46.1812C34.9233 46.1975 32.393 46.0888 31.0047 45.5282" stroke="black" stroke-width="0.502048" stroke-linecap="round"/>
<path d="M35.5727 131.391C44.7827 133.03 47.7708 127.53 49.499 125.279C51.2264 123.027 51.36 120.245 51.36 120.245C48.4356 114.628 41.034 110.165 38.1638 108.999C37.1784 112.51 36.9157 118.209 26.9377 116.024C24.0483 115.391 21.4304 115.048 19.1176 114.903L22.3928 130.19C24.5944 129.787 28.1087 130.063 35.5727 131.391Z" fill="#ADB2BA"/>
<path d="M50.6891 122.904C47.3597 115.701 40.654 111.852 37.8618 110.385C39.4356 111.869 43.7356 116.723 43.5323 120.527C43.2704 125.444 39.8927 124.724 39.5847 131.709C46.5041 131.709 50.5199 123.748 50.6891 122.904Z" fill="#B1BBC8"/>
<path d="M39.9023 111.892C27.4697 103.383 24.9216 90.8246 25.3357 86.2809C25.3357 86.2809 31.9263 83.2148 36.7584 82.232C44.5875 80.6405 49.6444 81.9894 49.6444 81.9894C49.6444 81.9894 52.0982 87.8554 53.1794 90.9947C54.728 95.494 55.7564 103.132 55.7564 103.132C55.7913 103.157 56.3211 103.514 56.3211 103.514C65.6045 110.205 71.7441 125.866 73.4707 132.441C73.9672 134.506 75.0572 138.003 77.3359 141.114L56.5697 148.409C55.5412 136.353 52.0782 120.225 39.9023 111.892Z" fill="#ADB2BA"/>
<path d="M54.7198 146.151L70.7349 140.199" stroke="black" stroke-width="0.502048" stroke-linecap="round"/>
<path d="M20.3685 111.586L23.9837 128.236" stroke="black" stroke-width="0.502048" stroke-linecap="round"/>
<path d="M55.7557 103.128C47.1638 96.1182 44.8197 90.0259 43.1658 87.5544C44.3975 88.5713 46.1546 91.6499 49.7037 93.1024C53.2528 94.5541 54.6961 97.1824 54.8742 97.8169C55.0522 98.4521 55.7557 103.128 55.7557 103.128Z" fill="#B1BBC8"/>
<path d="M56.6127 161.421C55.7215 157.475 56.1044 150.607 56.5763 148.415L75.4067 141.762C75.4942 142.008 75.7436 142.517 76.1806 143.069C76.9063 143.986 79.3238 146.754 85.7653 149.2C90.9187 151.157 94.4455 155.885 95.5778 157.903C87.7858 158.534 80.0926 159.389 71.6988 160.204C71.6988 160.204 71.238 160.239 69.7287 159.567C68.2194 158.895 67.0582 159.202 65.9451 159.306L65.0532 160.833C62.0198 161.106 56.6223 161.518 56.6127 161.421Z" fill="#3E4462"/>
<path d="M9.8496 113.768C12.7428 113.493 17.6045 114.383 19.1249 114.915L22.1709 128.848C21.9869 128.888 21.6018 129.018 21.1684 129.278C20.4502 129.71 18.2582 131.172 15.9342 135.513C14.0747 138.986 10.3861 141.057 8.84564 141.677C9.09793 136.102 9.18252 130.577 9.35764 124.56C9.35764 124.56 9.37396 124.231 9.9891 123.222C10.6042 122.215 10.49 121.365 10.5167 120.567L9.50827 119.798C9.58692 117.626 9.77911 113.766 9.8496 113.768Z" fill="#3E4462"/>
<path d="M35.6416 86.2557C35.8679 88.7598 35.1742 94.6035 30.5922 97.9484L35.6416 86.2557Z" fill="#B1BBC8"/>
<path d="M30.2159 115.249C31.6851 115.666 34.5471 116.329 37.9308 115.617" stroke="black" stroke-width="0.502048" stroke-linecap="round"/>
<path d="M51.6063 128.536C50.7611 125.982 48.8964 121.153 44.4984 116.928" stroke="black" stroke-width="0.502048" stroke-linecap="round"/>
<path d="M47.6164 87.2039L43.4537 86.5132" stroke="black" stroke-width="0.502048" stroke-linecap="round"/>
<path d="M35.5911 86.4711C35.5911 86.4711 36.0074 92.8783 31.4291 97.1188" stroke="black" stroke-width="0.502048" stroke-linecap="round"/>
<path d="M43.2103 87.7704C44.5941 90.7677 51.4341 98.7191 58.3438 104.552C69.3547 113.848 72.817 129.524 74.8027 133.991" stroke="black" stroke-width="0.502048" stroke-linecap="round"/>
<path d="M40.2014 84.7552L40.2718 88.9609" stroke="black" stroke-width="0.502048" stroke-linecap="round"/>
<path d="M36.6893 102.556L39.5854 105.614" stroke="black" stroke-width="0.502048" stroke-linecap="round"/>
<path d="M42.8132 95.0621L38.9629 96.7852" stroke="black" stroke-width="0.502048" stroke-linecap="round"/>
<path d="M50.727 103.549L49.9374 107.681" stroke="black" stroke-width="0.502048" stroke-linecap="round"/>
<path d="M52.6503 117.448L54.5372 121.21" stroke="black" stroke-width="0.502048" stroke-linecap="round"/>
<path d="M67.2333 122.674L66.4244 126.803" stroke="black" stroke-width="0.502048" stroke-linecap="round"/>
<path d="M60.328 136.536L62.4072 140.197" stroke="black" stroke-width="0.502048" stroke-linecap="round"/>
<path d="M39.817 120.812L44.0369 120.876" stroke="black" stroke-width="0.502048" stroke-linecap="round"/>
<path d="M28.3431 123.722L30.4215 127.382" stroke="black" stroke-width="0.502048" stroke-linecap="round"/>
<path d="M76.6102 146.006C79.6406 145.292 85.4017 143.415 84.204 141.625C83.0057 139.835 78.6418 143.8 76.6102 146.006Z" stroke="black" stroke-width="0.502048"/>
<path d="M76.5367 146.354C78.9921 144.444 83.4428 140.344 81.6048 139.215C79.7668 138.087 77.4606 143.504 76.5367 146.354Z" stroke="black" stroke-width="0.502048"/>
<path d="M18.4549 128.612C18.8036 131.696 19.9835 137.621 21.9098 136.65C23.836 135.679 20.4086 130.886 18.4549 128.612Z" stroke="black" stroke-width="0.502048"/>
<path d="M18.1172 128.497C19.7252 131.155 23.2773 136.051 24.6218 134.367C25.9656 132.684 20.8457 129.752 18.1172 128.497Z" stroke="black" stroke-width="0.502048"/>
<path d="M52.4655 65.3268C53.4361 66.9175 53.8538 69.7558 59.4071 69.6419C64.9597 69.5273 66.9921 68.4528 67.3141 67.9299C68.1964 65.5767 70.1769 60.9051 71.0354 61.0479C72.1084 61.2261 71.6075 63.1518 71.0354 66.3969C70.6777 68.8928 77.0094 65.6219 77.5118 65.3268C78.026 65.0251 79.1331 64.5407 79.4796 65.3268C79.6926 65.8119 77.4717 67.4951 75.3495 68.6717C76.5701 68.0985 80.6186 66.3969 81.2686 66.3969C81.9409 66.3969 82.6236 67.6134 76.657 70.3571C78.3436 69.6545 80.6721 68.9283 80.9102 69.4275C81.2449 70.1278 78.6122 71.5433 76.4551 72.3952C77.2966 72.1282 79.0418 71.6498 79.4796 71.7097C80.0332 71.7866 80.1237 72.2392 79.7297 72.566C79.3713 72.8633 65.2031 78.557 61.0166 79.0916C56.8308 79.6263 54.2189 80.161 51.2493 79.0916C49.4759 78.4527 48.4667 77.5017 48.2041 77.1925L46.5887 71.6926L52.4655 65.3268Z" fill="#FF6B6B"/>
<path d="M19.2919 69.3579C18.0742 70.215 5.65647 75.6712 16.2956 84.9605C19.5917 87.8387 22.6866 89.9042 23.301 89.8643C25.7393 89.2253 29.2127 89.2911 29.5912 90.0728C30.0638 91.0497 28.4076 91.1311 26.9236 91.8876C24.6716 93.0361 30.1811 96.6346 30.7124 96.8735C31.257 97.1183 32.2921 97.7402 31.8477 98.4753C31.5731 98.9294 28.9122 98.0923 26.724 97.0421C27.8979 97.7062 31.628 100.02 32.002 100.549C32.3901 101.097 31.7876 102.354 26.0962 99.0788C27.6456 100.047 29.5838 101.524 29.3114 102.006C28.9308 102.682 26.2521 101.355 24.3102 100.09C25.0136 100.621 26.4123 101.766 26.6157 102.157C26.8724 102.652 26.5533 102.987 26.0584 102.855C25.608 102.734 13.4143 93.9161 10.2837 91.0956C6.90232 88.0495 1.98122 82.7337 0.731655 79.7815C-1.43134 74.6699 1.87882 71.1897 1.98048 70.7977L11.7693 61.7267L19.2919 69.3579Z" fill="#FF6B6B"/>
<path d="M45.0706 73.7124L52.6911 66.272C48.8987 71.2076 47.8071 75.4636 47.7055 75.3674C47.5675 75.2358 46.2118 74.3247 45.0706 73.7124Z" fill="#E34545"/>
<path d="M18.9557 69.554L11.4279 62.0063C15.1929 66.9634 16.2095 71.2896 16.3112 71.1942C16.4507 71.0634 17.8115 70.1604 18.9557 69.554Z" fill="#E34545"/>
<path d="M71.8383 68.2584C71.8383 69.4646 70.5605 71.6077 68.8138 72.4819" stroke="black" stroke-width="0.502048" stroke-linecap="round"/>
<path d="M74.914 72.3458C74.0866 72.1054 72.3317 72.0256 71.3419 72.3273" stroke="black" stroke-width="0.502048" stroke-linecap="round"/>
<path d="M14.609 73.316C12.647 74.6783 11.2825 77.5092 11.1318 78.9342" stroke="black" stroke-width="0.502048" stroke-linecap="round"/>
<path d="M53.3003 65.5494C53.859 67.8664 56.0064 70.1641 57.2835 70.823" stroke="black" stroke-width="0.502048" stroke-linecap="round"/>
<path d="M24.9765 95.879L25.7757 96.3383" stroke="black" stroke-width="0.502048" stroke-linecap="round"/>
<path d="M23.8375 97.2798L24.6374 97.7383" stroke="black" stroke-width="0.502048" stroke-linecap="round"/>
<path d="M22.7119 98.4948L23.511 98.9533" stroke="black" stroke-width="0.502048" stroke-linecap="round"/>
<path d="M36.8459 51.3596C32.1764 54.6749 28.6288 52.4926 27.5358 50.9521C27.5358 50.9521 22.9849 51.0771 19.9708 52.5872C15.2315 54.9604 10.7378 59.2238 9.65967 60.4048L19.9708 70.8699L23.4888 68.3998C24.075 74.4817 25.3119 86.7912 25.3119 86.4724C34.7505 81.5531 46.355 81.1789 49.6325 82.0249L46.7542 72.1448L54.3109 64.5388C52.7646 61.219 48.587 56.662 45.7933 54.6609C43.7468 53.1944 39.0312 51.705 36.8459 51.3596Z" fill="#3E4462"/>
<path d="M45.5513 54.4967C43.0418 52.9023 38.7447 51.6458 36.8199 51.384L35.7039 52.0762C35.8798 52.2789 36.9461 52.8779 39.8095 53.6499C43.5479 54.7237 45.2003 54.6712 45.5513 54.4967Z" fill="#345DEE"/>
<path d="M37.9285 82.3376C31.726 83.4905 26.9058 85.5583 25.3052 86.4997L23.4902 68.8353C23.4902 68.8353 27.9097 57.8784 26.5555 64.4033C25.2021 70.9274 29.6565 79.8683 33.4059 80.7905C37.1553 81.7134 37.6443 82.0314 37.9285 82.3376Z" fill="#345DEE"/>
<path d="M29.1289 52.5783C30.6063 53.2083 34.4032 53.6816 37.7705 50.532" stroke="black" stroke-width="0.502048" stroke-linecap="round"/>
<path d="M45.8007 68.4966C46.3371 72.7208 47.5548 76.4103 51.0134 82.1882" stroke="black" stroke-width="0.502048" stroke-linecap="round"/>
<path d="M44.0362 81.1381C37.631 81.6372 31.9998 83.103 23.1111 87.5313" stroke="black" stroke-width="0.502048" stroke-linecap="round"/>
<path d="M23.1452 64.3492C23.4917 67.2134 23.4583 69.7796 22.7104 73.9291" stroke="black" stroke-width="0.502048" stroke-linecap="round"/>
<path d="M26.5295 62.5338C25.556 63.8014 24.883 65.0756 24.1966 67.4162" stroke="black" stroke-width="0.502048" stroke-linecap="round"/>
<path d="M38.0532 58.4131C38.7105 58.4131 39.2434 57.882 39.2434 57.2269C39.2434 56.5717 38.7105 56.0406 38.0532 56.0406C37.3959 56.0406 36.863 56.5717 36.863 57.2269C36.863 57.882 37.3959 58.4131 38.0532 58.4131Z" fill="#DFE4EA"/>
<path d="M32.9547 70.3609C33.6121 70.3609 34.1449 69.8299 34.1449 69.1747C34.1449 68.5196 33.6121 67.9885 32.9547 67.9885C32.2974 67.9885 31.7645 68.5196 31.7645 69.1747C31.7645 69.8299 32.2974 70.3609 32.9547 70.3609Z" fill="#DFE4EA"/>
<path d="M44.1593 76.4864C44.8167 76.4864 45.3495 75.9553 45.3495 75.3002C45.3495 74.6451 44.8167 74.114 44.1593 74.114C43.502 74.114 42.9691 74.6451 42.9691 75.3002C42.9691 75.9553 43.502 76.4864 44.1593 76.4864Z" fill="#DFE4EA"/>
<path d="M19.68 59.7849C20.3373 59.7849 20.8702 59.2538 20.8702 58.5987C20.8702 57.9436 20.3373 57.4125 19.68 57.4125C19.0226 57.4125 18.4897 57.9436 18.4897 58.5987C18.4897 59.2538 19.0226 59.7849 19.68 59.7849Z" fill="#DFE4EA"/>
<path d="M47.9644 66.7358C48.6217 66.7358 49.1546 66.2047 49.1546 65.5496C49.1546 64.8945 48.6217 64.3634 47.9644 64.3634C47.307 64.3634 46.7742 64.8945 46.7742 65.5496C46.7742 66.2047 47.307 66.7358 47.9644 66.7358Z" fill="#DFE4EA"/>
<path d="M30.3881 80.8956C31.0454 80.8956 31.5783 80.3645 31.5783 79.7094C31.5783 79.0543 31.0454 78.5232 30.3881 78.5232C29.7307 78.5232 29.1979 79.0543 29.1979 79.7094C29.1979 80.3645 29.7307 80.8956 30.3881 80.8956Z" fill="#DFE4EA"/>
</g>
<defs>
<clipPath id="clip0">
<rect width="120.565" height="167.987" fill="white"/>
</clipPath>
</defs>
</svg>
