<svg width="36" height="36" viewBox="0 0 36 36" fill="none" xmlns="http://www.w3.org/2000/svg">
<path d="M18 -7.86805e-07C27.9411 -3.52265e-07 36 8.05887 36 18V18C36 27.9411 27.9411 36 18 36V36C8.05887 36 -1.22135e-06 27.9411 -7.86805e-07 18V18C-3.52265e-07 8.05887 8.05887 -1.22135e-06 18 -7.86805e-07V-7.86805e-07Z" fill="#F2F4FA"/>
<path fill-rule="evenodd" clip-rule="evenodd" d="M17.0003 11L17.0003 22.17L13.1203 18.29C12.7303 17.9 12.0903 17.9 11.7003 18.29C11.3103 18.68 11.3103 19.31 11.7003 19.7L17.2903 25.29C17.6803 25.68 18.3103 25.68 18.7003 25.29L24.3003 19.71C24.6903 19.32 24.6903 18.69 24.3003 18.3C23.9103 17.91 23.2803 17.91 22.8903 18.3L19.0003 22.17L19.0003 11C19.0003 10.45 18.5503 10 18.0003 10C17.4503 10 17.0003 10.45 17.0003 11Z" fill="#18214D"/>
</svg>
