<svg width="22" height="18" viewBox="0 0 22 18" fill="none" xmlns="http://www.w3.org/2000/svg">
<path fill-rule="evenodd" clip-rule="evenodd" d="M20 2.00012C21.1046 2.00012 22 2.89555 22 4.00012V16.0001C22 17.1047 21.1046 18.0001 20 18.0001H2C0.89543 18.0001 0 17.1047 0 16.0001V2.00012C0 0.895553 0.89543 0.00012207 2 0.00012207H8C9.12 0.00012207 9.83294 0.475573 10.549 1.37898C10.5688 1.40397 10.6171 1.46621 10.6706 1.53512L10.6707 1.53527C10.7461 1.63249 10.8318 1.74295 10.8625 1.78094C10.8935 1.81937 10.9196 1.85115 10.9412 1.87742L10.9412 1.87744C11.0292 1.9844 11.0419 1.9999 11.0018 2.00012H20ZM20 16.0001V4.00012L10.9946 4.00011C10.2765 3.99626 9.80869 3.66003 9.30583 3.03666C9.26027 2.98019 9.14958 2.8375 9.0692 2.73389L9.06919 2.73387L9.06905 2.73369C9.02706 2.67956 8.99336 2.63612 8.9816 2.62128C8.60702 2.14869 8.38424 2.00012 8 2.00012H2V16.0001H20ZM14 10.0001C14 11.657 12.6569 13.0001 11 13.0001C9.34315 13.0001 8 11.657 8 10.0001C8 8.34327 9.34315 7.00012 11 7.00012C12.6569 7.00012 14 8.34327 14 10.0001ZM6 10.0001C6 12.7615 8.23858 15.0001 11 15.0001C13.7614 15.0001 16 12.7615 16 10.0001C16 7.2387 13.7614 5.00012 11 5.00012C8.23858 5.00012 6 7.2387 6 10.0001ZM17 6.00012C17 6.55241 17.4477 7.00012 18 7.00012C18.5523 7.00012 19 6.55241 19 6.00012C19 5.44784 18.5523 5.00012 18 5.00012C17.4477 5.00012 17 5.44784 17 6.00012Z" fill="#F36D03"/>
</svg>
