<svg width="14" height="14" viewBox="0 0 14 14" fill="none" xmlns="http://www.w3.org/2000/svg">
<path fill-rule="evenodd" clip-rule="evenodd" d="M13.3 0.710703C12.91 0.320703 12.28 0.320703 11.89 0.710703L7 5.5907L2.11 0.700703C1.72 0.310703 1.09 0.310703 0.700001 0.700703C0.310001 1.0907 0.310001 1.7207 0.700001 2.1107L5.59 7.0007L0.700001 11.8907C0.310001 12.2807 0.310001 12.9107 0.700001 13.3007C1.09 13.6907 1.72 13.6907 2.11 13.3007L7 8.4107L11.89 13.3007C12.28 13.6907 12.91 13.6907 13.3 13.3007C13.69 12.9107 13.69 12.2807 13.3 11.8907L8.41 7.0007L13.3 2.1107C13.68 1.7307 13.68 1.0907 13.3 0.710703Z" fill="#ADB2BA"/>
</svg>
