<svg width="217" height="216" viewBox="0 0 217 216" fill="none" xmlns="http://www.w3.org/2000/svg">
<mask id="mask0" mask-type="alpha" maskUnits="userSpaceOnUse" x="0" y="0" width="217" height="216">
<circle cx="108.5" cy="107.68" r="107.68" fill="#F2F4FA"/>
</mask>
<g mask="url(#mask0)">
<circle cx="108.5" cy="107.68" r="107.68" fill="#F2F4FA"/>
<path fill-rule="evenodd" clip-rule="evenodd" d="M254.195 52.6417C258.966 44.9611 255.283 43.1228 252.629 44.7422C252.629 44.7422 257.224 39.0938 254.961 36.6474C253.546 35.1193 252.062 35.3328 248.285 38.79C248.285 38.79 252.588 32.4569 250.132 30.0212C247.853 27.7608 244.718 31.965 241.961 35.1856C241.961 35.1856 244.498 27.293 240.177 26.9445C235.901 26.5994 229.768 39.1625 227.191 44.3446C228.065 38.0306 224.348 32.1118 222.283 34.8513C219.73 38.2378 209.43 71.0687 193.845 99.2477C174.033 131.459 149.49 128.875 149.49 128.875L162.67 172.521C162.67 172.521 166.535 174.633 181.63 166.201C208.987 150.92 224.907 119.335 231.968 101.862C232.625 101.473 233.023 101.088 233.11 100.728C233.715 98.2439 234.394 95.8062 235.127 93.4192C235.861 91.2731 236.261 89.9321 236.348 89.6351C241.932 73.1406 249.87 59.605 254.195 52.6417Z" fill="white"/>
<path fill-rule="evenodd" clip-rule="evenodd" d="M254.968 41.7271C256.245 39.5953 257.555 36.441 255.727 34.4663C254.375 33.0065 252.954 32.9107 251.293 33.7477C253.859 27.0803 248.056 24.3535 243.718 30.0716C243.963 27.554 243.136 24.6132 240.262 24.4321C236.507 24.1277 232.293 30.6827 228.187 38.592C227.488 34.2891 224.764 29.4551 221.449 32.7507C215.129 47.1551 206.404 72.5558 194.748 94.0281C194.655 94.1945 194.235 95.0688 194.113 95.2779C184.743 111.292 174.263 118.9 166.629 122.501C162.135 124.621 158.15 125.605 155.167 126.052L155.757 128.085C158.838 127.6 162.846 126.576 167.382 124.454C183.706 116.816 194.137 100.86 200.129 88.3886C200.31 88.0116 201.094 86.0953 201.263 85.7473C210.559 66.662 217.936 46.3732 223.117 34.0073C224.635 32.8612 226.829 38.483 226.158 42.7295C226.06 43.8801 226.091 44.9762 226.404 46.1017C226.59 47.1679 227.61 47.9189 228.4 48.6454C231.371 51.376 230.31 56.3333 230.244 56.6239C230.174 56.9287 230.166 57.128 230.056 57.3533C229.744 57.962 230.591 58.4263 230.936 57.854C233.108 54.1116 231.335 49.2393 228.739 46.1817C228.282 45.308 228.143 43.9449 228.313 42.9617C230.368 38.8242 236.622 26.233 240.094 26.5123C242.682 26.9831 241.484 31.2227 241.002 33.2799L235.844 41.5548C235.611 41.9284 235.726 42.4202 236.099 42.6534C236.461 42.8787 236.935 42.7771 237.176 42.4315C237.176 42.4315 242.789 34.3519 242.789 34.3514C244.679 32.4253 247.443 27.8779 249.398 29.2906C251.634 32.8676 243.576 41.8719 241.917 45.2295C241.342 46.0885 242.675 46.9971 243.265 46.1464L249.069 38.0162C252.919 34.5095 253.568 35.2075 254.194 35.8844C255.436 37.2259 253.13 40.9962 251.819 42.6122C251.816 42.6195 247.306 48.2993 247.301 48.3067C246.712 49.0287 247.804 49.9717 248.433 49.283L253.275 44.1059C256.325 42.7722 256.142 45.9481 253.309 50.6196C250.466 53.6532 237.683 79.7632 234.352 91.0525C234.119 91.8409 232.928 95.0035 232.657 95.728C230.587 101.261 227.297 109.176 222.673 117.795C208.229 144.718 192.105 157.683 181.121 163.818C174.869 167.31 170.618 168.938 167.823 169.671L168.408 171.684C172.07 170.717 176.676 168.692 182.139 165.64C202.493 154.271 216.428 133.861 224.535 118.741C228.947 110.512 232.157 102.913 234.266 97.3744C234.408 97.0003 237.238 88.8309 237.34 88.4873C241.384 76.5328 247.33 64.2003 255.082 51.7201C258.87 45.256 258.009 42.6362 254.968 41.7271Z" fill="#141414"/>
<path fill-rule="evenodd" clip-rule="evenodd" d="M66.0131 130.871C46.0099 127.178 28.1248 115.081 16.5345 87.5854L16.4221 87.5628C5.81017 60.0455 -0.0801964 31.5622 -2.08096 28.24C-3.85101 25.3007 -8.16128 30.8023 -7.94776 37.1727C-9.97257 31.7511 -14.7698 18.6196 -19.0589 18.5185C-23.3928 18.4183 -21.6875 26.5313 -21.6875 26.5313C-24.0952 23.0423 -26.7778 18.5351 -29.2792 20.5472C-31.9745 22.7153 -28.3515 29.4603 -28.3515 29.4603C-31.7487 25.6306 -33.2032 25.2639 -34.768 26.6368C-37.2739 28.8354 -33.2891 34.9295 -33.2891 34.9295C-35.7606 33.0441 -39.6148 34.4902 -35.6663 42.6243C-31.3109 51.5953 -22.6432 70.792 -19.6823 92.6378C-19.622 93.084 -19.1154 93.6117 -18.2402 94.1782C-3.90697 143.531 27.4921 164.234 53.1029 174.593L66.0131 130.871Z" fill="white"/>
<path fill-rule="evenodd" clip-rule="evenodd" d="M53.4061 172.094C24.2002 160.225 -9.26143 136.38 -20.5822 79.4987C-20.6328 79.2439 -20.9842 78.0761 -21.1163 77.5067C-24.6927 64.3118 -32.5774 43.5302 -34.7274 40.6964C-37.0605 35.7568 -36.9128 32.579 -34.0186 34.2219L-29.7393 39.8727C-29.1851 40.6238 -28.0006 39.7986 -28.5121 39.0196C-28.5165 39.0118 -32.4125 32.8951 -32.415 32.8868C-33.5518 31.1437 -35.4539 27.155 -34.08 25.9494C-33.3869 25.3407 -32.6692 24.7139 -29.2033 28.6015L-24.2735 37.2893C-23.7753 38.1969 -22.3557 37.4312 -22.8382 36.5172C-24.1405 33.0056 -31.2207 23.2138 -28.6255 19.8882C-26.5354 18.6861 -24.2568 23.4956 -22.5761 25.6078C-22.5766 25.6078 -17.8319 34.2263 -17.8319 34.2263C-17.6282 34.595 -17.1673 34.7452 -16.7844 34.5586C-16.3883 34.3657 -16.2243 33.8881 -16.4168 33.4925L-20.6887 24.7267C-20.9548 22.6307 -21.7058 18.29 -19.0836 18.0907C-15.6014 18.1722 -10.6869 31.3445 -9.07196 35.6729C-9.00471 36.6679 -9.285 38.0094 -9.83035 38.8311C-12.7289 41.603 -14.9977 46.2652 -13.2252 50.2128C-12.9414 50.8175 -11.9666 50.4194 -12.2135 49.7813C-12.2999 49.5457 -12.456 49.3047 -12.4093 49.0612C-12.3534 48.7682 -12.9861 43.7245 -9.74837 41.3164C-8.8874 40.6758 -7.79523 40.0352 -7.49924 38.9936C-7.0712 37.9068 -6.9264 36.8201 -6.90431 35.6651C-7.13207 31.372 -4.36605 26.0083 -2.97495 27.3056C1.54002 42.2814 7.397 66.8368 16.6866 89.4244C16.8098 89.7479 17.4965 91.0546 17.7886 91.6176C24.8438 106.227 34.3626 116.81 46.0976 123.411C52.0626 126.766 58.5661 129.089 65.7125 130.417L66.3094 128.396C43.8686 124.321 27.7821 110.322 17.4641 85.847C17.4018 85.6983 17.3306 85.5648 17.2256 85.3345C8.91769 63.9216 3.27227 40.1682 -1.18575 26.2292C-4.14173 22.6066 -7.35198 27.1324 -8.49372 31.3396C-11.7575 23.0474 -15.2676 16.0904 -19.0345 16.0035C-21.9115 15.8862 -23.0395 18.7249 -23.0572 21.2543C-26.7789 15.1175 -32.8327 17.2272 -30.9723 24.1249C-32.5377 23.1201 -33.9617 23.068 -35.4569 24.3796C-37.4797 26.1546 -36.5039 29.4272 -35.4559 31.6802C-38.5743 32.2688 -39.7028 34.7854 -36.6055 41.6074C-29.4227 56.404 -25.3608 68.4984 -21.9026 83.2518C-21.6395 84.3744 -20.9469 86.5902 -20.5302 88.2994C-13.716 116.289 -0.990387 136.66 16.9379 152.448C28.7927 162.888 41.6195 169.592 52.8082 174.119L53.4061 172.094Z" fill="#141414"/>
<path fill-rule="evenodd" clip-rule="evenodd" d="M159.501 165.769C159.371 165.207 159.722 164.647 160.284 164.517C160.845 164.387 161.406 164.739 161.535 165.3L164.597 178.591C182.687 174.168 185.917 166.605 185.917 166.605C185.917 166.605 182.941 142.643 170.67 119.572C138.273 122.517 129.437 118.1 124.528 118.1C114.711 114.664 95.5666 115.73 84.7684 119.081C70.5334 123.499 68.5699 124.481 52.1037 122.496C50.1481 130.621 39.6662 151.618 29.9741 168.269C36.6638 172.585 42.7469 174.662 54.9713 177.953L55.6546 167.659C55.6929 167.084 56.1926 166.655 56.7654 166.686C57.3402 166.725 57.7761 167.222 57.7378 167.797L56.8553 181.101C56.8538 181.121 56.8484 181.138 56.8459 181.157C55.8981 219.047 54.6577 263.026 54.6577 263.026L180.333 261.062C180.333 261.062 167.031 205.559 162.872 180.395C162.87 180.389 162.868 180.383 162.866 180.377L159.501 165.769Z" fill="#F36D03"/>
<path fill-rule="evenodd" clip-rule="evenodd" d="M96.3234 104.18L94.4749 121.44C94.4749 121.44 98.1205 129.341 109.304 129.883C124.392 130.613 121.235 121.264 121.235 121.264L120.815 105.676" fill="white"/>
<path fill-rule="evenodd" clip-rule="evenodd" d="M109.257 130.863C97.6123 130.3 93.7423 122.196 93.5833 121.851C93.5092 121.69 93.4797 121.512 93.4984 121.335L95.3475 104.075C95.4049 103.536 95.8918 103.145 96.4278 103.203C96.9668 103.261 97.3575 103.745 97.2996 104.284L95.4819 121.255C96.1638 122.519 99.8551 128.442 109.352 128.902C114.384 129.144 118.735 128.246 120.08 126.301C121.459 124.306 120.347 121.684 120.336 121.658C120.286 121.543 120.257 121.415 120.253 121.29L119.834 105.702C119.819 105.16 120.246 104.709 120.789 104.695C121.326 104.674 121.782 105.107 121.797 105.649L122.211 121.061C122.512 121.853 123.457 124.847 121.707 127.4C120.11 129.728 115.831 130.904 110.912 130.904C110.379 130.904 109.827 130.891 109.257 130.863Z" fill="#141414"/>
<path fill-rule="evenodd" clip-rule="evenodd" d="M118.147 50.8518C106.366 49.8701 93.113 54.2879 87.2226 60.1782C83.8946 63.5062 78.6623 70.698 77.8962 76.8676C77.3063 81.6179 77.4053 84.2305 80.8414 89.63C86.1558 97.9812 97.5307 126.936 119.62 121.045C141.708 115.155 141.218 95.0295 139.745 76.8676C138.272 58.7056 129.928 51.8335 118.147 50.8518Z" fill="white"/>
<path fill-rule="evenodd" clip-rule="evenodd" d="M76.9372 75.1836C79.7111 46.3675 97.6413 36.483 111.024 38.2977C112.894 38.5515 114.585 39.8371 115.476 40.2828C123.232 40.0614 132.214 43.0861 137.999 55.2467C143.621 67.0628 141.486 91.8622 141.794 114.82C142.228 134.265 145.324 152.228 145.324 152.228H124.305L123.546 114.665C122.82 114.844 122.848 114.783 122.078 114.892C119.496 115.256 117.028 115.438 114.68 115.438C110.429 115.438 107.839 115.155 103.912 114.174C104.629 125.019 104.046 142.052 103.117 152.228H74.9507L76.4817 88.1562C76.4724 86.5304 76.489 84.8458 76.5283 83.1135C76.1837 82.1058 75.9712 80.9837 75.9157 79.7418C75.8406 78.0729 76.2142 76.48 76.9372 75.1836ZM118.541 53.2082C113.939 61.2225 100.31 74.8768 87.8579 75.2568C87.8476 75.2568 87.8378 75.2573 87.828 75.2573C87.7828 75.2573 87.7387 75.2538 87.694 75.2479C86.6239 75.1007 85.6746 74.8567 84.8485 74.517C84.7915 74.5058 84.7346 74.4964 84.6796 74.4753C83.8127 74.1435 82.9989 73.9781 82.2547 73.9781C81.3565 73.9781 80.5593 74.2191 79.8927 74.7001C78.5556 75.6652 77.783 77.5633 77.8772 79.6534C78.0264 82.9805 79.4907 86.9462 85.6152 86.9462C86.135 86.9462 86.565 87.3517 86.5954 87.871C86.7672 90.8078 87.9605 100.911 96.1059 107.581C102.322 112.67 110.968 114.476 121.804 112.948C126.903 112.229 130.923 109.785 133.753 105.684C138.664 98.5684 139.81 86.6178 136.962 72.7058C136.932 72.6459 136.901 72.585 136.882 72.5182C134.552 64.0204 127.85 54.4864 118.541 53.2082ZM82.1441 77.6422C83.0085 77.4699 84.4016 77.8891 84.2951 79.9198C84.188 81.9505 82.3237 82.2853 81.1486 81.4302C79.973 80.5756 81.1771 77.8346 82.1441 77.6422Z" fill="#141414"/>
<path fill-rule="evenodd" clip-rule="evenodd" d="M117.817 95.7385C119.167 95.6865 123.925 94.6115 124.611 95.7851C126.245 99.2187 123.181 103.098 120.103 104.49C115.253 106.72 105.738 104.586 106.761 97.8296C106.744 97.6136 107.045 97.2577 107.296 97.2612C110.74 96.7433 114.367 96.1867 117.817 95.7385ZM123.62 96.4885C118.427 96.4188 113.195 97.5351 108.067 98.3396C108.809 101.378 111.686 102.87 114.686 103.274C118.585 104.108 123.308 101.91 123.806 97.675C123.836 97.2352 123.804 96.8336 123.62 96.4885ZM114.593 78.2143C114.607 77.3582 115.933 77.3479 115.977 78.1883C116.204 80.6455 116.258 83.1779 116.778 85.5768C122.138 87.82 120.277 93.593 114.676 93.1532C113.404 93.1434 113.399 91.2089 114.667 91.1898C115.729 91.1638 117.319 91.0253 117.786 90.101C118.351 88.6766 116.919 87.7312 115.669 87.2339C115.129 86.9821 114.943 86.2826 114.864 85.8683C114.453 83.3173 114.53 80.7722 114.593 78.2143ZM99.5707 80.8188C100.656 79.3305 102.483 78.2707 104.411 78.4529C105.399 78.5368 106.408 78.9712 107.143 79.7252C108.149 80.7633 106.573 82.2983 105.562 81.2689C105.225 80.8787 104.75 80.6156 104.188 80.5321C102.25 80.2622 100.672 81.9817 100.046 83.7036C99.8814 84.1694 99.3596 84.4095 98.9002 84.2239C97.593 83.5485 99.071 81.6911 99.5707 80.8188ZM119.467 78.1074C121.077 75.415 124.744 74.2443 127.604 75.6271C128.5 75.9638 131.087 78.0387 129.478 79.0317C129.045 79.2183 128.599 79.0013 128.366 78.6331C127.071 77.1228 124.38 76.787 122.613 77.7422C121.975 78.0839 121.404 78.5713 120.867 79.1392C120.545 79.5241 119.96 79.5658 119.595 79.2178C119.284 78.9228 119.239 78.4525 119.467 78.1074ZM99.4796 72.0567C100.407 71.9585 104.11 71.8289 103.727 73.3363C103.342 74.159 102.135 73.6844 101.42 73.9151C99.7726 74.0594 98.2072 74.7628 96.584 74.9955C96.0872 75.0598 95.6317 74.7093 95.5669 74.212C95.6111 72.7031 98.302 72.2378 99.4796 72.0567ZM123.262 69.5676C124.522 69.2736 129.067 69.9853 127.886 71.962C127.244 72.6109 126.28 72.0636 125.504 71.9581C124.063 71.5531 122.603 71.4947 121.143 71.8663C120.766 71.9394 120.401 71.6935 120.327 71.3165C120.247 70.215 122.4 69.7291 123.262 69.5676Z" fill="#141414"/>
<path fill-rule="evenodd" clip-rule="evenodd" d="M104.262 90.6971C105.462 90.1375 106.328 92.0003 105.13 92.5594C103.93 93.1195 103.064 91.2562 104.262 90.6971ZM99.6228 92.4719C97.7124 92.1484 99.8207 89.6798 100.479 91.255C100.892 91.8784 100.408 92.76 99.6228 92.4719ZM125.229 86.5506C126.441 86.5403 126.459 88.4238 125.244 88.4341C124.032 88.4439 124.015 86.5609 125.229 86.5506ZM102.197 87.1997C102.923 86.861 103.449 87.9885 102.723 88.3272C101.996 88.6659 101.471 87.5379 102.197 87.1997ZM105.803 85.9548C106.794 85.4929 107.509 87.0308 106.52 87.4922C105.528 87.9546 104.813 86.4162 105.803 85.9548ZM128.578 85.52C128.502 83.9566 131.22 85.1675 129.767 86.189C129.231 86.7378 128.483 86.1983 128.578 85.52ZM122.083 83.2344C123.084 83.2256 123.098 84.7806 122.095 84.7895C121.095 84.7983 121.08 83.2433 122.083 83.2344ZM125.557 82.8418C126.291 82.8354 126.302 83.9762 125.567 83.9821C124.833 83.9885 124.822 82.8482 125.557 82.8418Z" fill="#F36D03"/>
<path fill-rule="evenodd" clip-rule="evenodd" d="M124.629 85.8347C120.057 85.8347 116.608 82.2744 116.608 77.5533C116.608 72.8449 120.283 69.0142 124.801 69.0142C129.491 69.0142 133.166 72.6167 133.166 77.2156C133.166 81.8876 129.256 85.8347 124.629 85.8347ZM99.1139 89.1171C94.5307 89.1171 90.6588 84.6811 90.6588 79.4313C90.6588 74.5983 94.7158 70.667 99.7024 70.667C104.447 70.667 108.307 74.8928 108.307 80.0876C108.307 84.982 104.097 89.1171 99.1139 89.1171ZM124.801 67.0508C120.497 67.0508 116.82 69.8374 115.343 73.7535C113.52 73.619 110.261 74.0431 108.841 74.3804C107.009 70.9895 103.6 68.7035 99.7024 68.7035C93.6329 68.7035 88.6953 73.5159 88.6953 79.4313C88.6953 85.8548 93.3688 91.0805 99.1139 91.0805C105.161 91.0805 110.271 86.0462 110.271 80.0876C110.271 78.7196 110.045 77.4075 109.633 76.1911C110.847 75.9487 113.477 75.6733 114.817 75.6738C114.71 76.2844 114.645 76.9108 114.645 77.5533C114.645 83.2984 119.031 87.7981 124.629 87.7981C130.321 87.7981 135.13 82.9518 135.13 77.2156C135.13 71.5157 130.592 67.0508 124.801 67.0508Z" fill="#F36D03"/>
</g>
</svg>
