<svg width="32" height="32" viewBox="0 0 32 32" fill="none" xmlns="http://www.w3.org/2000/svg">
<path fill-rule="evenodd" clip-rule="evenodd" d="M16 32C24.8366 32 32 24.8366 32 16C32 7.16344 24.8366 0 16 0C7.16344 0 0 7.16344 0 16C0 24.8366 7.16344 32 16 32Z" fill="#F2F4FA"/>
<path fill-rule="evenodd" clip-rule="evenodd" d="M10.1666 16.8334H19.4749L16.2416 20.0668C15.9166 20.3918 15.9166 20.9251 16.2416 21.2501C16.5666 21.5751 17.0916 21.5751 17.4166 21.2501L22.0749 16.5918C22.3999 16.2668 22.3999 15.7418 22.0749 15.4168L17.4249 10.7501C17.0999 10.4251 16.5749 10.4251 16.2499 10.7501C15.9249 11.0751 15.9249 11.6001 16.2499 11.9251L19.4749 15.1668H10.1666C9.70825 15.1668 9.33325 15.5418 9.33325 16.0001C9.33325 16.4584 9.70825 16.8334 10.1666 16.8334Z" fill="#ADB2BA"/>
</svg>
