<svg width="20" height="18" viewBox="0 0 20 18" fill="none" xmlns="http://www.w3.org/2000/svg">
<path fill-rule="evenodd" clip-rule="evenodd" d="M10 13C8.34315 13 7 11.6569 7 10C7 8.34315 8.34315 7 10 7C11.6569 7 13 8.34315 13 10C13 11.6569 11.6569 13 10 13ZM18 2C19.1 2 20 2.9 20 4V16C20 17.1 19.1 18 18 18H2C0.9 18 0 17.1 0 16V4C0 2.9 0.9 2 2 2H5.17L6.4 0.65C6.78 0.24 7.32 0 7.88 0H12.12C12.68 0 13.22 0.24 13.59 0.65L14.83 2H18ZM10 15C12.76 15 15 12.76 15 10C15 7.24 12.76 5 10 5C7.24 5 5 7.24 5 10C5 12.76 7.24 15 10 15Z" fill="#F36D03" fill-opacity="0.2"/>
</svg>
