<svg width="32" height="32" viewBox="0 0 32 32" fill="none" xmlns="http://www.w3.org/2000/svg">
<path fill-rule="evenodd" clip-rule="evenodd" d="M16 32C24.8366 32 32 24.8366 32 16C32 7.16344 24.8366 0 16 0C7.16344 0 0 7.16344 0 16C0 24.8366 7.16344 32 16 32Z" fill="#F2F4FA"/>
<path fill-rule="evenodd" clip-rule="evenodd" d="M22.1918 16.8165C22.2251 16.5498 22.2501 16.2832 22.2501 15.9998C22.2501 15.7165 22.2251 15.4498 22.1918 15.1832L23.9501 13.8082C24.1084 13.6832 24.1501 13.4582 24.0501 13.2748L22.3834 10.3915C22.2834 10.2082 22.0584 10.1415 21.8751 10.2082L19.8001 11.0415C19.3668 10.7082 18.9001 10.4332 18.3918 10.2248L18.0751 8.0165C18.0501 7.8165 17.8751 7.6665 17.6668 7.6665H14.3334C14.1251 7.6665 13.9501 7.8165 13.9251 8.0165L13.6084 10.2248C13.1001 10.4332 12.6334 10.7165 12.2001 11.0415L10.1251 10.2082C9.93344 10.1332 9.71678 10.2082 9.61678 10.3915L7.95011 13.2748C7.84178 13.4582 7.89178 13.6832 8.05011 13.8082L9.80844 15.1832C9.77511 15.4498 9.75011 15.7248 9.75011 15.9998C9.75011 16.2748 9.77511 16.5498 9.80844 16.8165L8.05011 18.1915C7.89178 18.3165 7.85011 18.5415 7.95011 18.7248L9.61678 21.6082C9.71678 21.7915 9.94178 21.8582 10.1251 21.7915L12.2001 20.9582C12.6334 21.2915 13.1001 21.5665 13.6084 21.7748L13.9251 23.9832C13.9501 24.1832 14.1251 24.3332 14.3334 24.3332H17.6668C17.8751 24.3332 18.0501 24.1832 18.0751 23.9832L18.3918 21.7748C18.9001 21.5665 19.3668 21.2832 19.8001 20.9582L21.8751 21.7915C22.0668 21.8665 22.2834 21.7915 22.3834 21.6082L24.0501 18.7248C24.1501 18.5415 24.1084 18.3165 23.9501 18.1915L22.1918 16.8165ZM16.0001 18.9165C14.3918 18.9165 13.0834 17.6082 13.0834 15.9998C13.0834 14.3915 14.3918 13.0832 16.0001 13.0832C17.6084 13.0832 18.9168 14.3915 18.9168 15.9998C18.9168 17.6082 17.6084 18.9165 16.0001 18.9165Z" fill="#ADB2BA"/>
</svg>
