<svg width="24" height="24" viewBox="0 0 24 24" fill="none" xmlns="http://www.w3.org/2000/svg">
<g clip-path="url(#clip0)">
<path d="M19.915 13.027C19.527 12.537 19.638 12.319 19.915 11.881C19.92 11.876 23.123 7.45002 23.453 5.94902L23.455 5.94802C23.619 5.40102 23.455 4.99902 22.662 4.99902H20.038C19.37 4.99902 19.062 5.34402 18.897 5.73002C18.897 5.73002 17.561 8.92802 15.671 11.001C15.061 11.6 14.779 11.792 14.446 11.792C14.282 11.792 14.027 11.6 14.027 11.053V5.94802C14.027 5.29202 13.84 4.99902 13.287 4.99902H9.161C8.742 4.99902 8.493 5.30502 8.493 5.59002C8.493 6.21202 9.438 6.35502 9.536 8.10502V11.902C9.536 12.734 9.385 12.887 9.05 12.887C8.158 12.887 5.993 9.67602 4.71 6.00102C4.451 5.28802 4.198 5.00002 3.525 5.00002H0.9C0.151 5.00002 0 5.34502 0 5.73102C0 6.41302 0.892 9.80402 4.148 14.284C6.318 17.342 9.374 18.999 12.154 18.999C13.825 18.999 14.029 18.631 14.029 17.998C14.029 15.076 13.878 14.8 14.715 14.8C15.103 14.8 15.771 14.992 17.331 16.467C19.114 18.216 19.407 18.999 20.405 18.999H23.029C23.777 18.999 24.156 18.631 23.938 17.905C23.439 16.378 20.067 13.237 19.915 13.027V13.027Z" fill="#D1D3DA"/>
</g>
<defs>
<clipPath id="clip0">
<rect width="24" height="24" fill="white"/>
</clipPath>
</defs>
</svg>
