<svg width="216" height="216" viewBox="0 0 216 216" fill="none" xmlns="http://www.w3.org/2000/svg">
<mask id="mask0" mask-type="alpha" maskUnits="userSpaceOnUse" x="0" y="0" width="216" height="216">
<circle cx="108" cy="108" r="108" fill="#F2F4FA"/>
</mask>
<g mask="url(#mask0)">
<circle cx="108" cy="108" r="108" fill="#F2F4FA"/>
<path fill-rule="evenodd" clip-rule="evenodd" d="M253.436 52.7991C258.215 45.0957 254.525 43.252 251.867 44.8761C251.867 44.8761 256.47 39.211 254.203 36.7573C252.786 35.2247 251.299 35.4388 247.516 38.9062C247.516 38.9062 251.826 32.5543 249.367 30.1114C247.084 27.8443 243.943 32.061 241.182 35.2911C241.182 35.2911 243.723 27.3751 239.395 27.0255C235.112 26.6794 228.969 39.2799 226.388 44.4773C227.262 38.1446 223.54 32.2082 221.471 34.9559C218.914 38.3524 208.597 71.2808 192.986 99.5435C173.141 131.85 148.558 129.259 148.558 129.259L161.76 173.035C161.76 173.035 165.631 175.152 180.751 166.696C208.153 151.37 224.1 119.691 231.172 102.166C231.83 101.775 232.229 101.39 232.316 101.028C232.922 98.5367 233.602 96.0918 234.336 93.6977C235.071 91.5452 235.472 90.2002 235.559 89.9024C241.152 73.3589 249.104 59.7831 253.436 52.7991Z" fill="white"/>
<path fill-rule="evenodd" clip-rule="evenodd" d="M254.211 41.8508C255.489 39.7127 256.802 36.549 254.971 34.5684C253.617 33.1042 252.193 33.0082 250.529 33.8476C253.099 27.1604 247.287 24.4256 242.942 30.1606C243.188 27.6355 242.359 24.686 239.48 24.5044C235.719 24.1991 231.498 30.7736 227.386 38.7064C226.685 34.3907 223.957 29.5423 220.636 32.8477C214.306 47.2949 205.567 72.7711 193.891 94.3072C193.798 94.4741 193.377 95.3509 193.255 95.5606C183.87 111.622 173.372 119.253 165.725 122.865C161.224 124.991 157.233 125.978 154.244 126.426L154.835 128.465C157.922 127.978 161.936 126.952 166.48 124.823C182.831 117.163 193.279 101.16 199.281 88.6509C199.462 88.2728 200.248 86.3507 200.417 86.0017C209.728 66.8597 217.117 46.5106 222.307 34.1081C223.827 32.9585 226.025 38.5971 225.353 42.8561C225.255 44.0101 225.286 45.1095 225.599 46.2384C225.786 47.3077 226.807 48.061 227.599 48.7896C230.575 51.5284 229.512 56.5003 229.445 56.7918C229.375 57.0975 229.367 57.2974 229.257 57.5234C228.945 58.1338 229.793 58.5996 230.139 58.0255C232.315 54.2721 230.538 49.3853 227.938 46.3186C227.481 45.4423 227.341 44.0751 227.511 43.089C229.57 38.9392 235.835 26.3107 239.312 26.5908C241.904 27.063 240.704 31.3151 240.221 33.3785L235.055 41.678C234.822 42.0527 234.936 42.546 235.31 42.7798C235.673 43.0058 236.147 42.9039 236.389 42.5573C236.389 42.5573 242.011 34.4537 242.011 34.4532C243.904 32.5213 246.674 27.9605 248.631 29.3774C250.871 32.9649 242.8 41.996 241.138 45.3635C240.562 46.2251 241.897 47.1364 242.488 46.2832L248.301 38.1289C252.159 34.6117 252.808 35.3118 253.436 35.9907C254.679 37.3362 252.37 41.1177 251.056 42.7385C251.053 42.7458 246.536 48.4425 246.531 48.4499C245.94 49.1741 247.035 50.1198 247.665 49.4291L252.515 44.2366C255.569 42.899 255.386 46.0843 252.549 50.7697C249.701 53.8122 236.897 79.9998 233.56 91.3227C233.327 92.1134 232.134 95.2854 231.862 96.0121C229.789 101.561 226.494 109.5 221.862 118.145C207.395 145.148 191.244 158.151 180.242 164.304C173.979 167.806 169.722 169.439 166.922 170.175L167.507 172.194C171.175 171.224 175.789 169.193 181.262 166.131C201.649 154.729 215.607 134.259 223.727 119.093C228.146 110.84 231.362 103.218 233.474 97.6633C233.617 97.2882 236.452 89.0945 236.554 88.7498C240.604 76.7598 246.56 64.3908 254.325 51.8735C258.119 45.3901 257.257 42.7626 254.211 41.8508Z" fill="#141414"/>
<path fill-rule="evenodd" clip-rule="evenodd" d="M64.9434 131.26C44.9072 127.555 26.9925 115.423 15.3831 87.8452L15.2705 87.8226C4.64101 60.2235 -1.25908 31.6556 -3.26314 28.3236C-5.03612 25.3755 -9.35352 30.8935 -9.13964 37.2828C-11.1678 31.8451 -15.9729 18.6746 -20.2692 18.5732C-24.6102 18.4727 -22.9021 26.6098 -22.9021 26.6098C-25.3138 23.1104 -28.0008 18.5899 -30.5063 20.6079C-33.2061 22.7825 -29.5771 29.5475 -29.5771 29.5475C-32.9799 25.7064 -34.4368 25.3386 -36.0042 26.7156C-38.5142 28.9208 -34.5228 35.0329 -34.5228 35.0329C-36.9984 33.1419 -40.859 34.5923 -36.904 42.7506C-32.5414 51.7482 -23.8594 71.0019 -20.8936 92.9127C-20.8331 93.3602 -20.3257 93.8894 -19.4491 94.4576C-5.09217 143.957 26.3588 164.721 52.0119 175.111L64.9434 131.26Z" fill="white"/>
<path fill-rule="evenodd" clip-rule="evenodd" d="M52.3154 172.606C23.0613 160.701 -10.4557 136.785 -21.7951 79.7351C-21.8458 79.4796 -22.1978 78.3084 -22.3301 77.7373C-25.9124 64.5032 -33.8102 43.6598 -35.9637 40.8176C-38.3007 35.8634 -38.1527 32.6761 -35.2538 34.3239L-30.9673 39.9915C-30.4122 40.7447 -29.2258 39.9172 -29.7381 39.1358C-29.7426 39.128 -33.645 32.9931 -33.6475 32.9848C-34.7862 31.2365 -36.6914 27.2359 -35.3152 26.0268C-34.621 25.4163 -33.9021 24.7876 -30.4304 28.6868L-25.4925 37.4004C-24.9935 38.3107 -23.5716 37.5427 -24.0549 36.626C-25.3593 33.1039 -32.4512 23.2831 -29.8517 19.9476C-27.7582 18.7419 -25.4758 23.5657 -23.7923 25.6841C-23.7928 25.6841 -19.0403 34.3283 -19.0403 34.3283C-18.8363 34.6981 -18.3746 34.8487 -17.9911 34.6616C-17.5943 34.4681 -17.4301 33.9891 -17.6228 33.5923L-21.9018 24.8004C-22.1683 22.6982 -22.9206 18.3446 -20.2941 18.1447C-16.8061 18.2265 -11.8835 31.4379 -10.2659 35.7792C-10.1985 36.7771 -10.4793 38.1226 -11.0255 38.9468C-13.9289 41.7269 -16.2014 46.403 -14.4259 50.3622C-14.1417 50.9688 -13.1653 50.5695 -13.4126 49.9295C-13.4991 49.6932 -13.6555 49.4514 -13.6088 49.2073C-13.5527 48.9133 -14.1865 43.8547 -10.9434 41.4394C-10.081 40.7969 -8.98703 40.1545 -8.69055 39.1097C-8.26181 38.0197 -8.11677 36.9297 -8.09464 35.7713C-8.32278 31.4655 -5.55219 26.0859 -4.15879 27.3871C0.363634 42.4073 6.23029 67.0357 15.5352 89.6904C15.6586 90.0148 16.3465 91.3254 16.639 91.89C23.7059 106.543 33.2404 117.157 44.9949 123.778C50.9697 127.143 57.4839 129.472 64.6422 130.805L65.2401 128.777C42.7622 124.69 26.649 110.65 16.314 86.1023C16.2516 85.9531 16.1803 85.8192 16.0751 85.5883C7.7535 64.1118 2.09875 40.2879 -2.36664 26.3074C-5.3275 22.6741 -8.54305 27.2133 -9.68668 31.433C-12.9558 23.1162 -16.4718 16.1385 -20.2449 16.0514C-23.1266 15.9337 -24.2565 18.7808 -24.2742 21.3177C-28.002 15.1627 -34.0659 17.2787 -32.2024 24.1968C-33.7704 23.1891 -35.1967 23.1369 -36.6944 24.4524C-38.7205 26.2326 -37.7431 29.5149 -36.6934 31.7746C-39.817 32.3649 -40.9473 34.8891 -37.8449 41.7314C-30.6502 56.5719 -26.5816 68.7022 -23.1178 83.4994C-22.8542 84.6254 -22.1605 86.8477 -21.743 88.562C-14.9176 116.635 -2.17095 137.066 15.787 152.901C27.6614 163.372 40.5093 170.096 51.7166 174.637L52.3154 172.606Z" fill="#141414"/>
<path fill-rule="evenodd" clip-rule="evenodd" d="M158.585 166.261C158.455 165.698 158.807 165.136 159.37 165.006C159.932 164.876 160.493 165.228 160.623 165.791L163.69 179.121C181.81 174.686 185.045 167.1 185.045 167.1C185.045 167.1 182.064 143.067 169.773 119.928C137.322 122.882 128.472 118.451 123.555 118.451C113.722 115.004 94.5456 116.074 83.7295 119.435C69.471 123.866 67.5043 124.851 51.0109 122.86C49.0521 131.009 38.5528 152.069 28.8447 168.769C35.5455 173.098 41.6386 175.181 53.8832 178.481L54.5677 168.157C54.606 167.58 55.1065 167.15 55.6803 167.182C56.2561 167.22 56.6927 167.719 56.6543 168.296L55.7703 181.639C55.7688 181.659 55.7634 181.677 55.7609 181.696C54.8115 219.698 53.5691 263.807 53.5691 263.807L179.452 261.838C179.452 261.838 166.128 206.17 161.962 180.931C161.961 180.925 161.958 180.919 161.956 180.913L158.585 166.261Z" fill="#F36D03"/>
<path fill-rule="evenodd" clip-rule="evenodd" d="M95.3038 104.489L93.4521 121.801C93.4521 121.801 97.1038 129.726 108.306 130.269C123.419 131.001 120.256 121.624 120.256 121.624L119.836 105.99" fill="white"/>
<path fill-rule="evenodd" clip-rule="evenodd" d="M108.258 131.252C96.5949 130.687 92.7186 122.559 92.5593 122.213C92.485 122.052 92.4555 121.873 92.4742 121.696L94.3263 104.384C94.3839 103.843 94.8716 103.452 95.4085 103.51C95.9484 103.568 96.3398 104.053 96.2817 104.594L94.4611 121.615C95.144 122.883 98.8414 128.824 108.354 129.285C113.394 129.527 117.753 128.627 119.099 126.676C120.481 124.675 119.367 122.045 119.356 122.019C119.306 121.904 119.277 121.776 119.273 121.651L118.853 106.016C118.838 105.473 119.267 105.02 119.81 105.006C120.348 104.985 120.805 105.42 120.819 105.963L121.235 121.421C121.536 122.215 122.483 125.218 120.729 127.779C119.13 130.114 114.843 131.293 109.916 131.293C109.383 131.293 108.83 131.279 108.258 131.252Z" fill="#141414"/>
<path fill-rule="evenodd" clip-rule="evenodd" d="M117.163 51.0016C105.363 50.017 92.088 54.4479 86.1879 60.3557C82.8545 63.6936 77.6135 70.9068 76.8461 77.0947C76.2553 81.8591 76.3544 84.4795 79.7962 89.895C85.1193 98.271 96.5131 127.311 118.638 121.404C140.764 115.496 140.272 95.3106 138.797 77.0947C137.322 58.8788 128.964 51.9863 117.163 51.0016Z" fill="white"/>
<path fill-rule="evenodd" clip-rule="evenodd" d="M75.8858 75.4061C78.6643 46.5044 96.6241 36.5905 110.029 38.4106C111.902 38.6652 113.596 39.9545 114.488 40.4016C122.257 40.1795 131.254 43.2132 137.049 55.41C142.679 67.2612 140.541 92.1342 140.849 115.16C141.284 134.663 144.386 152.679 144.386 152.679H123.331L122.572 115.004C121.845 115.184 121.873 115.123 121.101 115.232C118.515 115.598 116.043 115.78 113.691 115.78C109.433 115.78 106.838 115.497 102.905 114.512C103.623 125.39 103.039 142.474 102.109 152.679H73.896L75.4295 88.4172C75.4202 86.7866 75.4369 85.097 75.4762 83.3596C75.1311 82.3488 74.9182 81.2234 74.8626 79.9778C74.7874 78.3039 75.1616 76.7063 75.8858 75.4061ZM117.558 53.3654C112.949 61.4035 99.2974 75.0984 86.8246 75.4795C86.8143 75.4795 86.8044 75.48 86.7946 75.48C86.7494 75.48 86.7051 75.4765 86.6604 75.4706C85.5885 75.3229 84.6376 75.0782 83.8101 74.7375C83.7531 74.7262 83.6961 74.7169 83.641 74.6957C82.7727 74.3629 81.9575 74.197 81.2121 74.197C80.3123 74.197 79.5139 74.4387 78.8462 74.9212C77.5069 75.8891 76.733 77.7929 76.8274 79.8892C76.9768 83.2261 78.4435 87.2036 84.5781 87.2036C85.0988 87.2036 85.5295 87.6103 85.56 88.1311C85.7321 91.0767 86.9273 101.21 95.0862 107.899C101.313 113.004 109.973 114.815 120.826 113.282C125.934 112.561 129.961 110.11 132.795 105.997C137.715 98.8603 138.863 86.8742 136.01 72.9209C135.979 72.8608 135.948 72.7998 135.93 72.7328C133.596 64.2097 126.882 54.6474 117.558 53.3654ZM81.1013 77.872C81.9671 77.6992 83.3625 78.1196 83.2558 80.1564C83.1486 82.1931 81.2812 82.5289 80.1042 81.6712C78.9266 80.8141 80.1327 78.065 81.1013 77.872Z" fill="#141414"/>
<path fill-rule="evenodd" clip-rule="evenodd" d="M116.834 96.0225C118.186 95.9703 122.951 94.8921 123.639 96.0693C125.275 99.513 122.206 103.404 119.123 104.8C114.265 107.036 104.735 104.896 105.759 98.1198C105.742 97.9031 106.043 97.5462 106.295 97.5497C109.745 97.0303 113.377 96.472 116.834 96.0225ZM122.646 96.7747C117.444 96.7048 112.204 97.8244 107.068 98.6313C107.81 101.678 110.692 103.175 113.697 103.581C117.602 104.417 122.333 102.212 122.832 97.9647C122.863 97.5236 122.83 97.1208 122.646 96.7747ZM113.604 78.4462C113.618 77.5876 114.946 77.5773 114.99 78.4201C115.218 80.8847 115.272 83.4246 115.793 85.8305C121.161 88.0805 119.297 93.8706 113.687 93.4295C112.413 93.4197 112.408 91.4794 113.678 91.4602C114.742 91.4341 116.335 91.2953 116.802 90.3683C117.368 88.9396 115.934 87.9913 114.682 87.4926C114.14 87.2401 113.954 86.5385 113.875 86.123C113.464 83.5644 113.541 81.0117 113.604 78.4462ZM98.5568 81.0585C99.6439 79.5658 101.473 78.5028 103.405 78.6855C104.394 78.7697 105.405 79.2054 106.142 79.9616C107.149 81.0028 105.571 82.5423 104.558 81.5099C104.22 81.1185 103.745 80.8547 103.182 80.771C101.241 80.5002 99.6601 82.2248 99.0328 83.9518C98.8681 84.4191 98.3454 84.6598 97.8852 84.4737C96.5759 83.7963 98.0563 81.9333 98.5568 81.0585ZM118.486 78.339C120.099 75.6387 123.772 74.4645 126.636 75.8513C127.533 76.1891 130.126 78.2701 128.513 79.2661C128.08 79.4532 127.633 79.2356 127.399 78.8663C126.103 77.3514 123.407 77.0147 121.637 77.9728C120.999 78.3154 120.426 78.8043 119.888 79.3739C119.565 79.7599 118.98 79.8017 118.614 79.4527C118.302 79.1568 118.257 78.6851 118.486 78.339ZM98.4655 72.2703C99.3943 72.1718 103.103 72.0419 102.719 73.5538C102.335 74.3789 101.125 73.9028 100.41 74.1342C98.7591 74.279 97.1911 74.9845 95.5651 75.2178C95.0676 75.2823 94.6113 74.9308 94.5464 74.4321C94.5906 72.9187 97.286 72.452 98.4655 72.2703ZM122.287 69.7738C123.549 69.4789 128.102 70.1928 126.919 72.1754C126.276 72.8262 125.31 72.2773 124.533 72.1714C123.089 71.7653 121.627 71.7067 120.164 72.0794C119.787 72.1527 119.421 71.9061 119.348 71.528C119.267 70.4232 121.424 69.9358 122.287 69.7738Z" fill="#141414"/>
<path fill-rule="evenodd" clip-rule="evenodd" d="M103.255 90.9655C104.458 90.4043 105.325 92.2726 104.126 92.8334C102.923 93.3951 102.056 91.5263 103.255 90.9655ZM98.609 92.7456C96.6954 92.4212 98.8071 89.9453 99.467 91.5251C99.8805 92.1504 99.3957 93.0346 98.609 92.7456ZM124.257 86.8068C125.471 86.7964 125.489 88.6855 124.273 88.6958C123.059 88.7057 123.041 86.8171 124.257 86.8068ZM101.187 87.4577C101.915 87.118 102.441 88.2489 101.714 88.5886C100.986 88.9283 100.461 87.7969 101.187 87.4577ZM104.799 86.2091C105.792 85.7459 106.508 87.2883 105.517 87.7511C104.524 88.2149 103.808 86.6719 104.799 86.2091ZM127.612 85.773C127.536 84.205 130.259 85.4196 128.803 86.4441C128.266 86.9945 127.517 86.4534 127.612 85.773ZM121.106 83.4807C122.108 83.4718 122.123 85.0315 121.119 85.0404C120.117 85.0492 120.102 83.4896 121.106 83.4807ZM124.586 83.0869C125.321 83.0805 125.332 84.2247 124.596 84.2306C123.86 84.237 123.85 83.0933 124.586 83.0869Z" fill="#F36D03"/>
<path fill-rule="evenodd" clip-rule="evenodd" d="M123.656 86.0887C119.076 86.0887 115.622 82.5179 115.622 77.7827C115.622 73.0604 119.303 69.2183 123.829 69.2183C128.527 69.2183 132.207 72.8315 132.207 77.444C132.207 82.1299 128.291 86.0887 123.656 86.0887ZM98.0989 89.3808C93.5081 89.3808 89.6298 84.9317 89.6298 79.6664C89.6298 74.819 93.6935 70.876 98.6884 70.876C103.441 70.876 107.307 75.1143 107.307 80.3246C107.307 85.2335 103.09 89.3808 98.0989 89.3808ZM123.829 67.249C119.518 67.249 115.835 70.0439 114.355 73.9717C112.529 73.8368 109.265 74.2621 107.842 74.6004C106.007 71.1994 102.592 68.9067 98.6884 68.9067C92.6088 68.9067 87.6631 73.7334 87.6631 79.6664C87.6631 86.1089 92.3443 91.3501 98.0989 91.3501C104.156 91.3501 109.274 86.3009 109.274 80.3246C109.274 78.9525 109.048 77.6365 108.635 76.4165C109.852 76.1733 112.485 75.8971 113.828 75.8976C113.72 76.5101 113.655 77.1383 113.655 77.7827C113.655 83.5449 118.049 88.058 123.656 88.058C129.358 88.058 134.174 83.1973 134.174 77.444C134.174 71.7272 129.629 67.249 123.829 67.249Z" fill="#F36D03"/>
</g>
</svg>
